<svg width="18" height="18" fill="none" xmlns="http://www.w3.org/2000/svg"><path d="M15.437 17.937H2.563a2.5 2.5 0 0 1-2.5-2.5V2.563a2.5 2.5 0 0 1 2.5-2.5h12.874a2.5 2.5 0 0 1 2.5 2.5v12.874a2.5 2.5 0 0 1-2.5 2.5zM2.563 1.063a1.5 1.5 0 0 0-1.5 1.5v12.874a1.5 1.5 0 0 0 1.5 1.5h12.874a1.5 1.5 0 0 0 1.5-1.5V2.563a1.5 1.5 0 0 0-1.5-1.5H2.563z" fill="#000"/><path d="M9 13.594a4.595 4.595 0 1 1 .01-9.19 4.595 4.595 0 0 1-.01 9.19zM9 5.4a3.595 3.595 0 1 0 .01 7.19A3.595 3.595 0 0 0 9 5.4zM14.2 4.905a1.075 1.075 0 1 0 0-2.15 1.075 1.075 0 0 0 0 2.15z" fill="#000"/></svg>