<svg width="64" height="64" viewBox="0 0 64 64" fill="none" xmlns="http://www.w3.org/2000/svg">
<path d="M18.6999 0.333313H45.2999C55.4333 0.333313 63.6666 8.56665 63.6666 18.7V45.3C63.6666 50.1711 61.7315 54.8428 58.2871 58.2872C54.8427 61.7316 50.1711 63.6666 45.2999 63.6666H18.6999C8.56659 63.6666 0.333252 55.4333 0.333252 45.3V18.7C0.333252 13.8288 2.26831 9.1572 5.71272 5.71279C9.15714 2.26837 13.8288 0.333313 18.6999 0.333313ZM18.0666 6.66665C15.0431 6.66665 12.1435 7.86771 10.0056 10.0056C7.86765 12.1435 6.66658 15.0432 6.66658 18.0666V45.9333C6.66658 52.235 11.7649 57.3333 18.0666 57.3333H45.9332C48.9567 57.3333 51.8564 56.1322 53.9943 53.9943C56.1322 51.8564 57.3332 48.9568 57.3332 45.9333V18.0666C57.3332 11.765 52.2349 6.66665 45.9332 6.66665H18.0666ZM48.6249 11.4166C49.6747 11.4166 50.6816 11.8337 51.4239 12.576C52.1662 13.3183 52.5832 14.3252 52.5832 15.375C52.5832 16.4248 52.1662 17.4316 51.4239 18.1739C50.6816 18.9163 49.6747 19.3333 48.6249 19.3333C47.5751 19.3333 46.5683 18.9163 45.8259 18.1739C45.0836 17.4316 44.6666 16.4248 44.6666 15.375C44.6666 14.3252 45.0836 13.3183 45.8259 12.576C46.5683 11.8337 47.5751 11.4166 48.6249 11.4166ZM31.9999 16.1666C36.1992 16.1666 40.2264 17.8348 43.1958 20.8041C46.1651 23.7734 47.8332 27.8007 47.8332 32C47.8332 36.1992 46.1651 40.2265 43.1958 43.1958C40.2264 46.1652 36.1992 47.8333 31.9999 47.8333C27.8007 47.8333 23.7734 46.1652 20.8041 43.1958C17.8347 40.2265 16.1666 36.1992 16.1666 32C16.1666 27.8007 17.8347 23.7734 20.8041 20.8041C23.7734 17.8348 27.8007 16.1666 31.9999 16.1666ZM31.9999 22.5C29.4804 22.5 27.064 23.5009 25.2824 25.2825C23.5008 27.0641 22.4999 29.4804 22.4999 32C22.4999 34.5195 23.5008 36.9359 25.2824 38.7175C27.064 40.4991 29.4804 41.5 31.9999 41.5C34.5195 41.5 36.9358 40.4991 38.7174 38.7175C40.499 36.9359 41.4999 34.5195 41.4999 32C41.4999 29.4804 40.499 27.0641 38.7174 25.2825C36.9358 23.5009 34.5195 22.5 31.9999 22.5Z" fill="white"/>
</svg>
