<svg width="64" height="52" viewBox="0 0 64 52" fill="none" xmlns="http://www.w3.org/2000/svg">
<path d="M6.66658 51.3333C4.92492 51.3333 3.43447 50.7137 2.19525 49.4745C0.95603 48.2353 0.335363 46.7438 0.333252 45V6.99999C0.333252 5.25832 0.953919 3.76788 2.19525 2.52866C3.43659 1.28943 4.92703 0.668768 6.66658 0.666656H57.3332C59.0749 0.666656 60.5664 1.28732 61.8077 2.52866C63.0491 3.76999 63.6687 5.26043 63.6666 6.99999V45C63.6666 46.7417 63.047 48.2332 61.8077 49.4745C60.5685 50.7158 59.077 51.3354 57.3332 51.3333H6.66658ZM31.9999 29.1667L6.66658 13.3333V45H57.3332V13.3333L31.9999 29.1667ZM31.9999 22.8333L57.3332 6.99999H6.66658L31.9999 22.8333ZM6.66658 13.3333V6.99999V45V13.3333Z" fill="white"/>
</svg>
