<svg width="18" height="18" fill="none" xmlns="http://www.w3.org/2000/svg"><path d="m16.485 17.154-6.262-6.262c-.5.426-1.075.756-1.725.989-.65.233-1.303.35-1.96.35-1.601 0-2.957-.554-4.066-1.663C1.362 9.459.808 8.104.808 6.503c0-1.601.554-2.957 1.662-4.067C3.578 1.326 4.933.77 6.534.769c1.601-.001 2.957.553 4.068 1.664 1.11 1.11 1.666 2.466 1.666 4.067 0 .695-.123 1.367-.369 2.017a5.474 5.474 0 0 1-.97 1.668l6.262 6.261-.706.708zM6.539 11.23c1.327 0 2.447-.457 3.36-1.37.913-.913 1.37-2.034 1.37-3.361 0-1.327-.457-2.447-1.37-3.36-.913-.913-2.033-1.37-3.36-1.37s-2.447.456-3.361 1.37c-.914.914-1.37 2.034-1.37 3.36s.457 2.446 1.37 3.36c.913.914 2.033 1.37 3.36 1.37" fill="#000"/></svg>