<svg width="78" height="78" viewBox="0 0 78 78" fill="none" xmlns="http://www.w3.org/2000/svg">
<path d="M30.875 52C24.9708 52 19.9745 49.9547 15.886 45.864C11.7975 41.7733 9.75217 36.777 9.75 30.875C9.74784 24.973 11.7932 19.9767 15.886 15.886C19.9788 11.7953 24.9752 9.75 30.875 9.75C36.7748 9.75 41.7723 11.7953 45.8673 15.886C49.9623 19.9767 52.0065 24.973 52 30.875C52 33.2583 51.6208 35.5062 50.8625 37.6187C50.1042 39.7312 49.075 41.6 47.775 43.225L65.975 61.425C66.5708 62.0208 66.8688 62.7792 66.8688 63.7C66.8688 64.6208 66.5708 65.3792 65.975 65.975C65.3792 66.5708 64.6208 66.8688 63.7 66.8688C62.7792 66.8688 62.0208 66.5708 61.425 65.975L43.225 47.775C41.6 49.075 39.7313 50.1042 37.6188 50.8625C35.5063 51.6208 33.2583 52 30.875 52ZM30.875 45.5C34.9375 45.5 38.3912 44.0787 41.236 41.236C44.0808 38.3933 45.5022 34.9397 45.5 30.875C45.4978 26.8103 44.0765 23.3578 41.236 20.5173C38.3955 17.6768 34.9418 16.2543 30.875 16.25C26.8082 16.2457 23.3556 17.6681 20.5173 20.5173C17.6789 23.3664 16.2565 26.819 16.25 30.875C16.2435 34.931 17.6659 38.3847 20.5173 41.236C23.3686 44.0873 26.8212 45.5087 30.875 45.5Z" fill="white"/>
</svg>
